<?xml version="1.0" encoding="utf-8"?>
<!-- Generator: Adobe Illustrator 22.0.0, SVG Export Plug-In . SVG Version: 6.00 Build 0)  -->
<svg version="1.1"
	 id="svg222" inkscape:version="0.92.2 (5c3e80d, 2017-08-06)" sodipodi:docname="logo.svg" xmlns:cc="http://creativecommons.org/ns#" xmlns:dc="http://purl.org/dc/elements/1.1/" xmlns:inkscape="http://www.inkscape.org/namespaces/inkscape" xmlns:rdf="http://www.w3.org/1999/02/22-rdf-syntax-ns#" xmlns:sodipodi="http://sodipodi.sourceforge.net/DTD/sodipodi-0.dtd" xmlns:svg="http://www.w3.org/2000/svg"
	 xmlns="http://www.w3.org/2000/svg" xmlns:xlink="http://www.w3.org/1999/xlink" x="0px" y="0px" viewBox="0 0 440.4 150.8"
	 style="enable-background:new 0 0 440.4 150.8;" xml:space="preserve">
<style type="text/css">
	.st0{fill:#A25034;}
	.st1{fill:#A35136;}
	.st2{fill:#A35236;}
	.st3{fill:#314653;}
	.st4{display:none;fill:#314653;}
</style>
<g id="logo-group" transform="translate(-205.01695,-274.04751)">
	<g>
		<path class="st0" d="M487.7,335.3c-7.6,0-15.1,0-22.7,0c-1.6,0-3.8,0.1-4-2.1c-0.2-2.8,2.3-2.6,4.1-2.6c15.1,0,30.2-0.1,45.3,0
			c2.8,0,5.2-0.6,6.3-3.4c0.9-2.2,0.5-4.4-1.4-5.9c-3.2-2.6-6.1-1.6-8,1.6c-1.1,2-2.5,3.1-4.1,2.1c-2.3-1.4-0.8-3.6,0.3-5.1
			c3-4.1,6.9-6,11.9-4c4.8,1.9,7.2,5.6,6.4,10.8c-0.8,5.5-4.3,8.5-9.7,8.7C504,335.5,495.8,335.3,487.7,335.3z"/>
		<path class="st1" d="M485.8,338.9c5.4,0,10.8-0.4,16.1,0.1c5,0.4,8.4,3.4,9.1,8.7c0.7,5.2-1.6,9-6.4,10.8
			c-4.6,1.8-8.6,0.3-11.6-3.5c-1.2-1.5-2.8-3.7-0.9-5.2c1.8-1.6,3.5-0.2,4.6,1.9c1.4,2.6,3.9,3.4,6.6,2.2c2.5-1.1,3.4-3.3,2.8-5.9
			c-0.6-3-2.8-4.2-5.6-4.2c-9.7,0-19.5,0-29.2-0.1c-1.7,0-4.6,0.4-4.5-2.1c0.1-2.7,2.9-2.5,4.7-2.5
			C476.2,338.8,481,338.9,485.8,338.9C485.8,338.9,485.8,338.9,485.8,338.9z"/>
		<path class="st2" d="M479.8,326.9c-3.2,0-6.4,0-9.5,0c-1.8,0-3.7,0.2-3.5-2.6c0.1-2.5,1.9-2.1,3.4-2.1c6.2,0,12.3,0,18.5,0
			c3.3,0,6-0.8,6.7-4.5c0.5-2.4-0.3-4.4-2.5-5.5c-3.2-1.6-5.8-0.6-7.4,2.6c-1,2-2.8,2.6-4.4,1.4c-1.5-1.2-0.3-3,0.4-4.3
			c2.6-4.5,6.7-6.3,11.6-4.8c4.9,1.5,7.5,5.1,7.1,10.4c-0.4,5.6-3.9,8.6-9.1,9.3C487.4,327.2,483.6,326.8,479.8,326.9
			C479.8,326.9,479.8,326.9,479.8,326.9z"/>
	</g>
	<g id="title" transform="translate(-11.389831)">
		<path id="path230" inkscape:connector-curvature="0" class="st3" d="M247,357.2h7.4c1.4,0,2.1-0.7,2.1-2.1v-46.1
			c0-0.7-0.2-1.2-0.5-1.5c-0.3-0.4-0.8-0.5-1.6-0.5h-2.8c-3.2,0-6,1.6-8.4,4.9c-1.5,2.1-2.5,4.8-3,7.9c-0.5,3.1-0.8,5.5-0.8,6.9
			h-2.2l0.6-22.1h44.3l0.6,22.1h-2.2c0-1.5-0.3-3.8-0.8-6.9c-0.5-3.2-1.5-5.8-3-7.9c-2.4-3.3-5.2-4.9-8.4-4.9h-2.8
			c-0.8,0-1.3,0.2-1.6,0.5c-0.3,0.3-0.5,0.8-0.5,1.5v46.1c0,1.4,0.7,2.1,2.1,2.1h7.4v2.5H247L247,357.2z"/>
		<path id="path232" inkscape:connector-curvature="0" class="st3" d="M291.6,357.2h5.6c1.4,0,2.1-0.7,2.1-2.1v-45.8
			c0-1.4-0.7-2.1-2.1-2.1h-5.6v-2.5H314v2.5h-5.6c-1.4,0-2.1,0.7-2.1,2.1v20.3h23.3v-20.3c0-1.4-0.7-2.1-2.1-2.1H322v-2.5h22.4v2.5
			h-5.6c-1.4,0-2.1,0.7-2.1,2.1v45.8c0,1.4,0.7,2.1,2.1,2.1h5.6v2.5H322v-2.5h5.6c1.4,0,2.1-0.7,2.1-2.1V332h-23.3v23.1
			c0,1.4,0.7,2.1,2.1,2.1h5.6v2.5h-22.4V357.2z"/>
		<path id="path234" inkscape:connector-curvature="0" class="st3" d="M375.4,361c-4.3,0-8.2-1.4-11.6-4.1s-6-6.3-7.9-10.7
			c-1.9-4.5-2.9-9.2-2.9-14s1-9.5,2.9-14c1.9-4.5,4.6-8.1,7.9-10.8c3.4-2.7,7.3-4.1,11.6-4.1c4.3,0,8.2,1.4,11.6,4.1
			c3.4,2.7,6,6.3,7.9,10.8c1.9,4.4,2.9,9.1,2.9,14c0,4.9-1,9.6-2.9,14c-1.9,4.4-4.6,8-7.9,10.7C383.5,359.7,379.7,361,375.4,361z
			 M375.4,358.6c5,0,8.7-2.3,10.9-6.9c2.2-4.6,3.3-11.1,3.3-19.5c0-8.4-1.1-14.9-3.3-19.5c-2.2-4.6-5.8-6.9-10.9-6.9
			s-8.7,2.3-10.9,6.9c-2.2,4.6-3.3,11.1-3.3,19.5c0,8.4,1.1,14.9,3.3,19.5C366.7,356.3,370.3,358.6,375.4,358.6z"/>
		<path id="path236" inkscape:connector-curvature="0" class="st3" d="M417.5,311.7H417V351c0,1.9,0.4,3.4,1.3,4.6
			c0.9,1.1,2.1,1.6,3.5,1.6h2.8v2.5h-18.4v-2.5h2.8c1.4,0,2.6-0.5,3.5-1.6c0.9-1.1,1.4-2.6,1.4-4.6v-41.7c0-0.7-0.2-1.2-0.5-1.5
			c-0.3-0.4-0.8-0.5-1.5-0.5h-5.6v-2.5h16.4l12.6,42.5l11.7-42.5h16v2.5h-5.6c-0.7,0-1.3,0.2-1.6,0.5c-0.3,0.3-0.5,0.8-0.5,1.5v45.8
			c0,1.4,0.7,2.1,2.1,2.1h5.6v2.5h-22.4v-2.5h5.6c1.4,0,2.1-0.7,2.1-2.1v-45.5l-14.1,51h-1.9L417.5,311.7z"/>
		<path id="path238" inkscape:connector-curvature="0" class="st4" d="M468.7,66.8h3.9c1,0,1.5-0.5,1.5-1.5V33.2
			c0-0.5-0.1-0.9-0.4-1.1c-0.2-0.3-0.6-0.4-1.1-0.4h-3.9v-1.7h30.1l0.2,13.5h-1.3c0-0.7-0.2-1.9-0.5-3.7c-0.3-1.7-0.9-3.3-1.8-4.6
			c-1.5-2.3-3.6-3.5-6.4-3.5h-8.6c-0.5,0-0.9,0.1-1.1,0.4c-0.2,0.2-0.3,0.6-0.3,1.1v14.5h4.2c1.8,0,3.2-0.9,3.9-2.8
			c0.8-1.9,1.2-3.9,1.2-6h1.4v19.3h-1.4c0-2.1-0.4-4.1-1.2-6c-0.8-1.9-2.1-2.8-3.9-2.8H479v15.8c0,1,0.5,1.5,1.5,1.5h8.6
			c1,0,2.1-0.2,3.2-0.7c1.1-0.5,2-1.2,2.8-2.2c0.7-1,1.3-2.3,1.8-3.8c0.5-1.5,0.8-2.9,1-4.1c0.2-1.3,0.3-2.1,0.3-2.4h1.4l-0.6,14.9
			h-30.1V66.8z"/>
		<path id="path240" inkscape:connector-curvature="0" class="st3" d="M542.2,357.2h5.6c1.4,0,2.1-0.7,2.1-2.1v-45.8
			c0-0.7-0.2-1.2-0.5-1.5c-0.3-0.4-0.8-0.5-1.5-0.5h-5.6v-2.5h23.6v2.5h-6.8c-0.7,0-1.3,0.2-1.6,0.5c-0.3,0.3-0.5,0.8-0.5,1.5v45.8
			c0,1.4,0.7,2.1,2.1,2.1h7.8c2.7,0,5.2-0.6,7.3-1.9c2.2-1.2,3.8-3,4.9-5.4c0.8-1.7,1.5-3.6,2-5.6c0.6-2,1-3.7,1.2-5.1
			c0.3-1.4,0.4-2.3,0.5-2.6h1.9l-0.7,23h-41.7L542.2,357.2z"/>
		<path id="path242" inkscape:connector-curvature="0" class="st3" d="M602.1,357.2h7.4c1.4,0,2.1-0.7,2.1-2.1v-20l-15-24.5
			c-0.8-1.3-1.5-2.2-2.1-2.7s-1.4-0.7-2.5-0.7h-4v-2.5h23.9v2.5h-4.6c-0.8,0-1.4,0.2-1.9,0.5c-0.5,0.4-0.8,0.8-0.8,1.4
			c0,0.8,0.1,1.3,0.4,1.7l12.2,20.6l7.9-15.1c0.3-0.4,0.5-1.1,0.8-2.2s0.5-1.9,0.5-2.5c0-1.2-0.4-2.3-1.1-3.1
			c-0.7-0.9-1.7-1.3-3.2-1.3h-2.3v-2.5h19.1v2.5h-2.2c-1.6,0-3,0.5-4,1.5c-1,1-2,2.3-3,4.1l-11,21v21.3c0,1.4,0.7,2.1,2.1,2.1h7.4
			v2.5h-26.1V357.2z"/>
	</g>
	<g id="tagline" transform="translate(-11.389831)">
		<path id="path245" inkscape:connector-curvature="0" class="st3" d="M328.7,401.6v-17.2l-2.3-0.3v-1.2h13.4l0.4,4h-1.3l-0.7-2.6
			l-7.2-0.1v7.9l5-0.1l0.4-2.2h1.4v6h-1.4l-0.4-2.3l-5-0.1v8.3l8.3-0.2l1.4-3.4l1.3,0.4L341,403h-14.6v-1.2L328.7,401.6z"/>
		<path id="path247" inkscape:connector-curvature="0" class="st3" d="M345.5,389.8l-2.1-0.5v-1.2l3.4-0.4h0.1l0.5,0.4v1.2l0,0.7
			c0.7-0.6,1.5-1.1,2.6-1.6c1.1-0.5,2.1-0.7,3.1-0.7c1.2,0,2,0.2,2.6,0.7c0.6,0.4,1.1,1.1,1.3,2c0.3,0.9,0.4,2.1,0.4,3.6v7.6l2,0.2
			v1.2h-6.1v-1.2l1.9-0.2v-7.7c0-1.1-0.1-2-0.2-2.7c-0.1-0.6-0.4-1.1-0.9-1.5c-0.4-0.3-1.1-0.5-1.9-0.5c-0.7,0-1.5,0.2-2.3,0.5
			c-0.8,0.4-1.5,0.8-2.2,1.3v10.5l2,0.2v1.2h-6v-1.2l1.8-0.2V389.8z"/>
		<path id="path249" inkscape:connector-curvature="0" class="st3" d="M364.4,384.9c-0.4,0-0.7-0.1-1-0.4c-0.2-0.3-0.4-0.7-0.4-1.1
			c0-0.5,0.1-0.9,0.4-1.2c0.3-0.4,0.7-0.5,1.2-0.5c0.4,0,0.8,0.2,1,0.5c0.3,0.3,0.4,0.7,0.4,1.1c0,0.5-0.1,1-0.4,1.3
			C365.4,384.7,365,384.9,364.4,384.9L364.4,384.9z M361.3,388.1l3.8-0.4h0.1l0.5,0.4v14.7c0,4.2-1.4,6.5-4.1,6.7
			c-0.2,0-0.5,0-0.9,0c-0.4,0-0.6-0.1-0.6-0.1l-0.1-1.1c0.1,0,0.4,0,0.6-0.1c0.3,0,0.6-0.1,0.9-0.2c0.8-0.2,1.3-0.8,1.6-1.8
			c0.3-1,0.5-2.3,0.5-3.9l0-12.4l-2.1-0.5V388.1z"/>
		<path id="path251" inkscape:connector-curvature="0" class="st3" d="M369.7,395.4c0-1.6,0.3-2.9,1-4.1c0.7-1.2,1.5-2.1,2.6-2.7
			c1.1-0.6,2.2-0.9,3.4-0.9c2.3,0,3.9,0.7,5,2.2c1.1,1.5,1.6,3.4,1.6,5.7c0,1.6-0.3,2.9-1,4.1c-0.6,1.2-1.5,2.1-2.6,2.7
			c-1.1,0.6-2.2,0.9-3.3,0.9c-2.3,0-4-0.7-5-2.2C370.2,399.6,369.7,397.7,369.7,395.4z M376.5,401.9c1.4,0,2.5-0.5,3.2-1.6
			c0.8-1.1,1.1-2.6,1.1-4.6c0-1.9-0.4-3.5-1.1-4.8c-0.7-1.2-1.8-1.9-3.3-1.9c-1.4,0-2.5,0.5-3.2,1.6c-0.8,1.1-1.1,2.6-1.1,4.6
			c0,2,0.4,3.6,1.1,4.8C373.9,401.2,375,401.9,376.5,401.9z"/>
		<path id="path253" inkscape:connector-curvature="0" class="st3" d="M387.8,409.7c-0.3,0-0.5,0-0.8-0.1c-0.3,0-0.4-0.1-0.5-0.1v-2
			c0.2,0.1,0.7,0.2,1.4,0.2c0.6,0,1.1-0.1,1.5-0.4c0.5-0.2,0.9-0.7,1.4-1.4s1-1.7,1.4-3h-1.2l-5.2-13.5l-1.3-0.4V388h6v1.1l-2.2,0.3
			l2.8,8.3l1.4,4.4l1.4-4.4l2.5-8.2l-1.9-0.3V388h5.2v1.1l-1.4,0.3c-1.3,4.1-2.4,7.4-3.2,9.7c-0.8,2.3-1.3,3.7-1.5,4.3
			c-0.6,1.6-1.2,2.8-1.7,3.6c-0.5,0.9-1.1,1.5-1.7,2S388.8,409.7,387.8,409.7L387.8,409.7z"/>
		<path id="path255" inkscape:connector-curvature="0" class="st3" d="M411,409.7c-0.3,0-0.5,0-0.8-0.1c-0.3,0-0.4-0.1-0.5-0.1v-2
			c0.2,0.1,0.7,0.2,1.4,0.2c0.6,0,1.1-0.1,1.5-0.4c0.5-0.2,0.9-0.7,1.4-1.4s1-1.7,1.4-3h-1.2l-5.2-13.5l-1.3-0.4V388h6v1.1l-2.2,0.3
			l2.8,8.3l1.4,4.4l1.4-4.4l2.5-8.2l-1.9-0.3V388h5.2v1.1l-1.4,0.3c-1.3,4.1-2.4,7.4-3.2,9.7c-0.8,2.3-1.3,3.7-1.5,4.3
			c-0.6,1.6-1.2,2.8-1.7,3.6c-0.5,0.9-1.1,1.5-1.7,2S412,409.7,411,409.7L411,409.7z"/>
		<path id="path257" inkscape:connector-curvature="0" class="st3" d="M424.4,395.4c0-1.6,0.3-2.9,1-4.1c0.7-1.2,1.5-2.1,2.6-2.7
			c1.1-0.6,2.2-0.9,3.4-0.9c2.3,0,3.9,0.7,5,2.2c1.1,1.5,1.6,3.4,1.6,5.7c0,1.6-0.3,2.9-1,4.1c-0.6,1.2-1.5,2.1-2.6,2.7
			c-1.1,0.6-2.2,0.9-3.3,0.9c-2.3,0-4-0.7-5-2.2C425,399.6,424.4,397.7,424.4,395.4z M431.2,401.9c1.4,0,2.5-0.5,3.2-1.6
			c0.8-1.1,1.1-2.6,1.1-4.6c0-1.9-0.4-3.5-1.1-4.8c-0.7-1.2-1.8-1.9-3.3-1.9c-1.4,0-2.5,0.5-3.2,1.6c-0.8,1.1-1.1,2.6-1.1,4.6
			c0,2,0.4,3.6,1.1,4.8C428.7,401.2,429.8,401.9,431.2,401.9z"/>
		<path id="path259" inkscape:connector-curvature="0" class="st3" d="M452.9,403.2c-0.5,0-0.8-0.1-1-0.2c-0.2-0.2-0.3-0.5-0.3-0.9
			V401c-0.7,0.6-1.4,1.1-2.3,1.6c-0.9,0.4-1.8,0.7-2.7,0.7c-1.6,0-2.8-0.5-3.5-1.4c-0.7-0.9-1-2.4-1-4.5v-7.9l-1.6-0.5v-1l3.3-0.4h0
			l0.5,0.3v9.1c0,1.1,0.1,2,0.2,2.7c0.2,0.6,0.5,1.1,0.9,1.4c0.4,0.3,1.1,0.5,1.9,0.5c0.8,0,1.5-0.2,2.3-0.5
			c0.7-0.3,1.3-0.7,1.9-1.2v-10.4l-2.1-0.5v-1l3.6-0.4h0l0.6,0.3v13.8h1.7l0,1c-0.1,0-0.4,0.1-0.8,0.2
			C453.9,403.1,453.4,403.2,452.9,403.2L452.9,403.2z"/>
		<path id="path261" inkscape:connector-curvature="0" class="st3" d="M457.6,401.8l2.2-0.2v-11.9l-2.1-0.5v-1.2l3.4-0.4h0.1
			l0.5,0.4v0.4l-0.1,2.1h0.1c0,0,0.3-0.3,0.7-0.8c0.4-0.5,1.1-1,2-1.5c0.9-0.5,1.8-0.7,2.6-0.7c0.3,0,0.6,0,0.8,0.1v2.4
			c-0.1-0.1-0.2-0.1-0.5-0.2c-0.2-0.1-0.5-0.1-0.8-0.1c-1,0-1.9,0.2-2.6,0.5s-1.4,0.7-2,1.1v10.2l3.6,0.2v1.1h-7.9V401.8z"/>
		<path id="path263" inkscape:connector-curvature="0" class="st3" d="M479,382.5l-2.4-0.2v-1l4-0.5h0.1l0.5,0.4v6.4l-0.1,2.2
			c0.6-0.5,1.4-1,2.4-1.5s2.1-0.7,3.1-0.7c1.1,0,2,0.2,2.6,0.6c0.6,0.4,1.1,1.1,1.3,2c0.3,0.9,0.4,2.1,0.4,3.7v7.6l2,0.2v1.2h-6
			v-1.2l1.9-0.2v-7.6c0-1.2-0.1-2.1-0.2-2.7c-0.1-0.6-0.4-1.1-0.9-1.5c-0.4-0.3-1.1-0.5-2-0.5c-0.7,0-1.5,0.2-2.3,0.5
			c-0.8,0.3-1.6,0.8-2.2,1.2v10.5l2,0.2v1.2h-5.9v-1.2l1.7-0.2L479,382.5z"/>
		<path id="path265" inkscape:connector-curvature="0" class="st3" d="M495,395.4c0-1.6,0.3-2.9,1-4.1c0.7-1.2,1.5-2.1,2.6-2.7
			c1.1-0.6,2.2-0.9,3.4-0.9c2.3,0,3.9,0.7,5,2.2c1.1,1.5,1.6,3.4,1.6,5.7c0,1.6-0.3,2.9-1,4.1c-0.6,1.2-1.5,2.1-2.6,2.7
			c-1.1,0.6-2.2,0.9-3.3,0.9c-2.3,0-4-0.7-5-2.2C495.5,399.6,495,397.7,495,395.4z M501.8,401.9c1.4,0,2.5-0.5,3.2-1.6
			c0.8-1.1,1.1-2.6,1.1-4.6c0-1.9-0.4-3.5-1.1-4.8c-0.7-1.2-1.8-1.9-3.3-1.9c-1.4,0-2.5,0.5-3.2,1.6c-0.8,1.1-1.1,2.6-1.1,4.6
			c0,2,0.4,3.6,1.1,4.8C499.2,401.2,500.3,401.9,501.8,401.9L501.8,401.9z"/>
		<path id="path267" inkscape:connector-curvature="0" class="st3" d="M511.1,401.8l1.7-0.2v-11.8l-2.1-0.5v-1.2l3.4-0.4l0.6,0.4
			v1.2l0,0.7c0.7-0.6,1.5-1.1,2.6-1.6s2.1-0.7,2.9-0.7c1,0,1.7,0.2,2.3,0.5c0.6,0.3,1,0.8,1.3,1.5c0.6-0.5,1.4-0.9,2.4-1.4
			c1.1-0.4,2.1-0.6,3-0.6c1.1,0,2,0.2,2.6,0.6c0.6,0.4,1.1,1.1,1.3,2c0.3,0.9,0.4,2.1,0.4,3.6v7.7l2.1,0.2v1.2h-6v-1.2l1.8-0.2V394
			c0-1.1-0.1-2-0.2-2.7c-0.2-0.7-0.5-1.2-0.9-1.5c-0.5-0.3-1.2-0.5-2.1-0.5c-0.7,0-1.4,0.2-2.1,0.5c-0.7,0.3-1.3,0.6-1.9,1
			c0.2,0.8,0.3,1.9,0.3,3.2v7.6l2.1,0.2v1.2h-6.2v-1.2l1.9-0.2v-7.6c0-1.2-0.1-2.1-0.2-2.7c-0.1-0.6-0.4-1.1-0.8-1.5
			s-1.1-0.5-1.9-0.5c-0.7,0-1.5,0.2-2.3,0.5c-0.8,0.3-1.5,0.8-2.1,1.2v10.5l1.9,0.2v1.2h-5.8L511.1,401.8z"/>
		<path id="path269" inkscape:connector-curvature="0" class="st3" d="M544.2,403.3c-2.1,0-3.7-0.7-4.8-2.1
			c-1.1-1.4-1.7-3.3-1.7-5.7c0-1.5,0.3-2.9,0.9-4.1s1.4-2.1,2.5-2.8c1.1-0.7,2.3-1,3.6-1c1.6,0,2.8,0.5,3.7,1.4
			c0.9,0.9,1.4,2.2,1.5,4c0,1.1-0.1,1.9-0.2,2.4H540c0,1.9,0.4,3.4,1.3,4.6c0.9,1.2,2.1,1.8,3.6,1.8c0.8,0,1.5-0.1,2.3-0.4
			c0.8-0.3,1.4-0.6,1.8-1l0.4,1c-0.5,0.5-1.3,1-2.3,1.4C546.2,403.1,545.2,403.3,544.2,403.3L544.2,403.3z M547.4,394
			c0.1-0.4,0.1-0.8,0.1-1.2c0-1.2-0.3-2.1-0.9-2.8c-0.5-0.7-1.4-1.1-2.5-1.1c-2.5,0-3.8,1.7-4,5.1H547.4z"/>
	</g>
</g>
</svg>
