<svg id="svg222" xmlns="http://www.w3.org/2000/svg" viewBox="0 0 440.44 150.8"><defs><style>.cls-1{fill:#a25034;}.cls-2{fill:#a35136;}.cls-3{fill:#a35236;}.cls-4{fill:#314653;}</style></defs><title>logo</title><g id="logo-group"><path class="cls-1" d="M282.65,61.25c-7.55,0-15.1,0-22.65,0-1.6,0-3.82.1-4-2.12-.23-2.77,2.29-2.6,4.12-2.61q22.65-.06,45.31,0c2.81,0,5.18-.59,6.27-3.44a4.84,4.84,0,0,0-1.45-5.93c-3.22-2.56-6.15-1.61-8,1.64-1.09,2-2.48,3.11-4.11,2.09-2.31-1.44-.81-3.61.3-5.14,2.95-4.13,6.93-6,11.9-4,4.81,1.89,7.18,5.6,6.42,10.81C316,58,312.51,61,307.09,61.18,299,61.43,290.8,61.24,282.65,61.25Z"/><path class="cls-2" d="M280.76,64.89c5.37,0,10.76-.37,16.08.1,5,.45,8.44,3.37,9.11,8.66s-1.6,9-6.41,10.84c-4.63,1.8-8.6.32-11.59-3.52-1.17-1.51-2.76-3.69-.93-5.25s3.46-.16,4.61,1.92a4.73,4.73,0,0,0,6.61,2.19,4.91,4.91,0,0,0,2.84-5.93c-.61-3-2.75-4.23-5.63-4.24-9.73,0-19.46,0-29.19-.09-1.66,0-4.58.41-4.5-2.13.09-2.73,2.88-2.48,4.71-2.54,4.76-.18,9.53-.06,14.29-.06Z"/><path class="cls-3" d="M274.77,52.86h-9.53c-1.82,0-3.68.17-3.53-2.63.14-2.49,1.91-2.13,3.41-2.14q9.22-.06,18.46,0c3.25,0,6-.79,6.69-4.46a4.73,4.73,0,0,0-2.49-5.54c-3.23-1.61-5.78-.59-7.42,2.56-1,2-2.76,2.65-4.37,1.43s-.29-3,.44-4.25C279,33.27,283.15,31.51,288,33s7.46,5.11,7.11,10.38c-.37,5.63-3.86,8.64-9.09,9.34-3.7.5-7.52.1-11.29.1Z"/><g id="title"><path id="path230" class="cls-4" d="M30.59,83.14H38a1.84,1.84,0,0,0,2.08-2.08V35a2.12,2.12,0,0,0-.46-1.54A2.05,2.05,0,0,0,38,32.92H35.21q-4.86,0-8.4,4.94a18.55,18.55,0,0,0-3,7.94,47,47,0,0,0-.77,7H20.87l.61-22.07H65.76l.62,22.07H64.22a48.38,48.38,0,0,0-.77-7,18.81,18.81,0,0,0-3-7.94Q56.89,32.92,52,32.92H49.25a2.05,2.05,0,0,0-1.62.54A2.16,2.16,0,0,0,47.17,35V81.06a1.84,1.84,0,0,0,2.08,2.08h7.41v2.47H30.59Z"/><path id="path232" class="cls-4" d="M75.24,83.14h5.55a1.84,1.84,0,0,0,2.09-2.08V35.23a1.85,1.85,0,0,0-2.09-2.08H75.24V30.68H97.61v2.47H92.06A1.85,1.85,0,0,0,90,35.23V55.52h23.3V35.23a1.84,1.84,0,0,0-2.08-2.08h-5.56V30.68H128v2.47h-5.56a1.84,1.84,0,0,0-2.08,2.08V81.06a1.84,1.84,0,0,0,2.08,2.08H128v2.47H105.63V83.14h5.56a1.84,1.84,0,0,0,2.08-2.08V58H90V81.06a1.84,1.84,0,0,0,2.09,2.08h5.55v2.47H75.24Z"/><path id="path234" class="cls-4" d="M159,87a18,18,0,0,1-11.57-4.09,27.24,27.24,0,0,1-7.95-10.72,35.6,35.6,0,0,1-2.85-14,35.05,35.05,0,0,1,2.85-14,27.17,27.17,0,0,1,7.95-10.8,18.41,18.41,0,0,1,23.14,0,27.36,27.36,0,0,1,7.95,10.8,35.05,35.05,0,0,1,2.85,14,35.6,35.6,0,0,1-2.85,14,27.44,27.44,0,0,1-7.95,10.72A18,18,0,0,1,159,87Zm0-2.47a11.27,11.27,0,0,0,10.88-6.87q3.31-6.94,3.31-19.51t-3.31-19.52a12.05,12.05,0,0,0-21.76,0q-3.31,6.87-3.32,19.52t3.32,19.51A11.26,11.26,0,0,0,159,84.53Z"/><path id="path236" class="cls-4" d="M201.09,37.63h-.47V77a7.28,7.28,0,0,0,1.31,4.55,4.47,4.47,0,0,0,3.55,1.62h2.78v2.47H189.9V83.14h2.78a4.25,4.25,0,0,0,3.47-1.62A7,7,0,0,0,197.54,77V35.23a1.93,1.93,0,0,0-.54-1.54,2,2,0,0,0-1.55-.54H189.9V30.68h16.35l12.58,42.51,11.72-42.51h16v2.47H241a2.2,2.2,0,0,0-1.62.54,2.12,2.12,0,0,0-.46,1.54V81.06A1.84,1.84,0,0,0,241,83.14h5.55v2.47H224.15V83.14h5.56a1.84,1.84,0,0,0,2.08-2.08V35.54l-14.12,51h-1.85Z"/><path id="path240" class="cls-4" d="M325.84,83.14h5.56a1.84,1.84,0,0,0,2.08-2.08V35.23a1.88,1.88,0,0,0-2.08-2.08h-5.56V30.68h23.61v2.47h-6.79a2.2,2.2,0,0,0-1.62.54,2.12,2.12,0,0,0-.46,1.54V81.06a1.84,1.84,0,0,0,2.08,2.08h7.79a14.54,14.54,0,0,0,7.33-1.85,11.63,11.63,0,0,0,4.86-5.4,32.14,32.14,0,0,0,2-5.56q.86-3,1.24-5.09c.26-1.39.41-2.26.46-2.62h1.93l-.69,23H325.84Z"/><path id="path242" class="cls-4" d="M385.65,83.14h7.4a1.84,1.84,0,0,0,2.09-2.08v-20l-15-24.53a9.06,9.06,0,0,0-2.08-2.7,4,4,0,0,0-2.47-.7h-4V30.68h23.91v2.47h-4.63a3.25,3.25,0,0,0-1.92.54,1.63,1.63,0,0,0-.78,1.39,2.94,2.94,0,0,0,.39,1.7l12.19,20.59,7.87-15.12a8.25,8.25,0,0,0,.85-2.16,10.23,10.23,0,0,0,.46-2.54,4.53,4.53,0,0,0-1.08-3.09,3.73,3.73,0,0,0-3.16-1.31h-2.32V30.68h19.13v2.47h-2.23a5.47,5.47,0,0,0-4,1.54,17.26,17.26,0,0,0-3,4.09l-11,21V81.06a1.84,1.84,0,0,0,2.09,2.08h7.4v2.47H385.65Z"/></g><g id="tagline"><path id="path245" class="cls-4" d="M112.3,127.51v-17.2L110,110v-1.16H123.4l.38,4h-1.3l-.73-2.59-7.23-.14V118l5-.08.35-2.24h1.35v6h-1.35l-.35-2.29-5-.08v8.31l8.26-.21,1.38-3.38,1.29.41-.83,4.56H110v-1.16Z"/><path id="path247" class="cls-4" d="M129.06,115.71l-2.08-.46V114l3.43-.43h.08l.51.43v1.19l0,.68a10.66,10.66,0,0,1,2.65-1.6,7.68,7.68,0,0,1,3-.73,4.45,4.45,0,0,1,2.65.68,3.32,3.32,0,0,1,1.29,2,14.15,14.15,0,0,1,.38,3.65v7.64l2,.19v1.16h-6.07v-1.16l1.86-.19v-7.67a11.68,11.68,0,0,0-.24-2.67,2.34,2.34,0,0,0-.89-1.46,3.05,3.05,0,0,0-1.92-.51,6.06,6.06,0,0,0-2.35.54,9.39,9.39,0,0,0-2.16,1.27v10.47l2,.22v1.16h-6v-1.16l1.81-.22Z"/><path id="path249" class="cls-4" d="M148,110.82a1.25,1.25,0,0,1-1-.43,1.81,1.81,0,0,1-.35-1.11,1.94,1.94,0,0,1,.4-1.24,1.45,1.45,0,0,1,1.19-.54,1.26,1.26,0,0,1,1,.46,1.64,1.64,0,0,1,.38,1.08,1.92,1.92,0,0,1-.44,1.29,1.43,1.43,0,0,1-1.18.49ZM144.94,114l3.75-.43h.06l.51.43v14.72q0,6.34-4.13,6.72a6.49,6.49,0,0,1-.89,0,1.5,1.5,0,0,1-.65-.11l-.11-1.1a2.44,2.44,0,0,0,.65-.06A4.24,4.24,0,0,0,145,134a2.49,2.49,0,0,0,1.62-1.84,13.45,13.45,0,0,0,.46-3.91l0-12.42-2.13-.49Z"/><path id="path251" class="cls-4" d="M153.3,121.32a8.49,8.49,0,0,1,1-4.13,7.15,7.15,0,0,1,2.59-2.72,6.63,6.63,0,0,1,3.38-1,5.82,5.82,0,0,1,5,2.21,9.25,9.25,0,0,1,1.65,5.67,8.4,8.4,0,0,1-1,4.14,6.93,6.93,0,0,1-2.59,2.72,6.5,6.5,0,0,1-3.35,1,5.88,5.88,0,0,1-5.05-2.22A9.33,9.33,0,0,1,153.3,121.32Zm6.8,6.48a3.73,3.73,0,0,0,3.22-1.59,8,8,0,0,0,1.13-4.64,9.64,9.64,0,0,0-1-4.78,3.51,3.51,0,0,0-3.27-1.87,3.78,3.78,0,0,0-3.24,1.6,7.93,7.93,0,0,0-1.13,4.64,9.74,9.74,0,0,0,1.05,4.81A3.57,3.57,0,0,0,160.1,127.8Z"/><path id="path253" class="cls-4" d="M171.41,135.63a5.27,5.27,0,0,1-.78,0,1.68,1.68,0,0,1-.54-.14v-2a3.82,3.82,0,0,0,1.37.16,3.26,3.26,0,0,0,1.51-.35,4,4,0,0,0,1.44-1.35,13.19,13.19,0,0,0,1.43-3h-1.19l-5.16-13.53-1.27-.35v-1.1h6V115l-2.19.33,2.84,8.26,1.4,4.4,1.35-4.43,2.54-8.23-1.89-.33v-1.1h5.18V115l-1.4.33q-2,6.21-3.21,9.72c-.78,2.32-1.27,3.74-1.49,4.26a30.76,30.76,0,0,1-1.67,3.65,5.71,5.71,0,0,1-1.73,2,4.39,4.39,0,0,1-2.51.67Z"/><path id="path255" class="cls-4" d="M194.61,135.63a5.27,5.27,0,0,1-.78,0,1.86,1.86,0,0,1-.54-.14v-2a3.85,3.85,0,0,0,1.38.16,3.29,3.29,0,0,0,1.51-.35,4,4,0,0,0,1.43-1.35,13.19,13.19,0,0,0,1.43-3h-1.19l-5.16-13.53-1.26-.35v-1.1h6V115l-2.18.33,2.83,8.26,1.4,4.4,1.35-4.43,2.54-8.23-1.89-.33v-1.1h5.19V115l-1.41.33q-2,6.21-3.21,9.72c-.77,2.32-1.27,3.74-1.49,4.26a29.22,29.22,0,0,1-1.67,3.65,5.71,5.71,0,0,1-1.73,2,4.37,4.37,0,0,1-2.51.67Z"/><path id="path257" class="cls-4" d="M208,121.32a8.49,8.49,0,0,1,1-4.13,7.15,7.15,0,0,1,2.59-2.72,6.63,6.63,0,0,1,3.38-1,5.83,5.83,0,0,1,5,2.21,9.25,9.25,0,0,1,1.65,5.67,8.4,8.4,0,0,1-1,4.14,7,7,0,0,1-2.6,2.72,6.44,6.44,0,0,1-3.34,1,5.88,5.88,0,0,1-5.05-2.22A9.33,9.33,0,0,1,208,121.32Zm6.8,6.48a3.7,3.7,0,0,0,3.21-1.59,7.92,7.92,0,0,0,1.14-4.64,9.64,9.64,0,0,0-1.05-4.78,3.53,3.53,0,0,0-3.27-1.87,3.78,3.78,0,0,0-3.24,1.6,7.92,7.92,0,0,0-1.14,4.64,9.73,9.73,0,0,0,1.06,4.81A3.57,3.57,0,0,0,214.84,127.8Z"/><path id="path259" class="cls-4" d="M236.49,129.15a1.76,1.76,0,0,1-1-.24,1.07,1.07,0,0,1-.32-.89V127a10.91,10.91,0,0,1-2.35,1.56,6,6,0,0,1-2.7.68,4.14,4.14,0,0,1-3.51-1.38,7.57,7.57,0,0,1-1-4.48v-7.94L224,115v-1l3.27-.35h0l.49.33V123a11.72,11.72,0,0,0,.24,2.68,2.33,2.33,0,0,0,.89,1.4,3.26,3.26,0,0,0,1.89.46,5.23,5.23,0,0,0,2.27-.51,7.59,7.59,0,0,0,1.86-1.22V115.41l-2-.46v-1l3.59-.35h0l.62.33v13.79h1.68l0,1L238,129a5.11,5.11,0,0,1-1.46.19Z"/><path id="path261" class="cls-4" d="M241.21,127.78l2.16-.17v-11.9l-2.08-.46V114l3.43-.43h.05l.52.43v.44l-.06,2h.06l.7-.81a7.08,7.08,0,0,1,2-1.49,5.56,5.56,0,0,1,2.65-.7,3.1,3.1,0,0,1,.81.11V116a1.94,1.94,0,0,0-.49-.16,3.62,3.62,0,0,0-.76-.08,6.59,6.59,0,0,0-2.61.46,10,10,0,0,0-2,1.13v10.24l3.59.21v1.11h-7.94Z"/><path id="path263" class="cls-4" d="M262.55,108.5l-2.4-.24v-1l4-.46h.06l.51.35v6.42l0,2.25a9.45,9.45,0,0,1,2.43-1.52,7.33,7.33,0,0,1,3.07-.73,4.65,4.65,0,0,1,2.65.65,3.43,3.43,0,0,1,1.32,2,14.21,14.21,0,0,1,.38,3.67v7.61l2,.22v1.16h-6.05v-1.16l1.89-.22v-7.64a11.85,11.85,0,0,0-.24-2.7,2.34,2.34,0,0,0-.89-1.46,3.39,3.39,0,0,0-2-.48,5.81,5.81,0,0,0-2.32.54,9.25,9.25,0,0,0-2.19,1.24v10.5l2,.22v1.16h-5.86v-1.16l1.7-.19Z"/><path id="path265" class="cls-4" d="M278.6,121.32a8.49,8.49,0,0,1,1-4.13,7.08,7.08,0,0,1,2.59-2.72,6.63,6.63,0,0,1,3.38-1,5.83,5.83,0,0,1,5,2.21,9.25,9.25,0,0,1,1.64,5.67,8.4,8.4,0,0,1-1,4.14,7,7,0,0,1-2.6,2.72,6.44,6.44,0,0,1-3.34,1,5.87,5.87,0,0,1-5-2.22A9.33,9.33,0,0,1,278.6,121.32Zm6.8,6.48a3.7,3.7,0,0,0,3.21-1.59,7.92,7.92,0,0,0,1.14-4.64,9.53,9.53,0,0,0-1.06-4.78,3.5,3.5,0,0,0-3.26-1.87,3.78,3.78,0,0,0-3.24,1.6,7.92,7.92,0,0,0-1.14,4.64,9.63,9.63,0,0,0,1.06,4.81,3.56,3.56,0,0,0,3.29,1.83Z"/><path id="path267" class="cls-4" d="M294.65,127.75l1.73-.22V115.71l-2.08-.46V114l3.43-.43.6.43v1.19l0,.68a10.62,10.62,0,0,1,2.62-1.6,7.36,7.36,0,0,1,2.94-.73,4.76,4.76,0,0,1,2.32.49,3,3,0,0,1,1.35,1.51,9.21,9.21,0,0,1,2.43-1.35,8.11,8.11,0,0,1,3-.65,4.5,4.5,0,0,1,2.62.65,3.42,3.42,0,0,1,1.32,2,13.72,13.72,0,0,1,.38,3.65v7.66l2.05.22v1.16h-6v-1.16l1.83-.22V120a12,12,0,0,0-.24-2.7,2.55,2.55,0,0,0-1-1.52,3.44,3.44,0,0,0-2-.51,5.39,5.39,0,0,0-2.1.46,8.89,8.89,0,0,0-1.87,1,15.79,15.79,0,0,1,.27,3.24v7.61l2.06.22v1.16H304v-1.16l2-.22v-7.64a13.37,13.37,0,0,0-.22-2.7,2.28,2.28,0,0,0-.84-1.46,3.18,3.18,0,0,0-1.91-.48,5.8,5.8,0,0,0-2.3.54,8.83,8.83,0,0,0-2.13,1.24v10.5l1.92.22v1.16h-5.84Z"/><path id="path269" class="cls-4" d="M327.82,129.21a5.79,5.79,0,0,1-4.83-2.14,10.25,10.25,0,0,1-.79-9.8,6.79,6.79,0,0,1,2.46-2.75,6.53,6.53,0,0,1,3.56-1A4.91,4.91,0,0,1,332,114.9a5.8,5.8,0,0,1,1.46,4,12.67,12.67,0,0,1-.16,2.37h-9.62a8,8,0,0,0,1.27,4.65,4.25,4.25,0,0,0,3.62,1.78,7.14,7.14,0,0,0,2.32-.41,5.34,5.34,0,0,0,1.84-1l.43,1a6.21,6.21,0,0,1-2.29,1.38,8.72,8.72,0,0,1-3,.54ZM331,120a8.87,8.87,0,0,0,.08-1.18,4.62,4.62,0,0,0-.86-2.84,3,3,0,0,0-2.52-1q-3.69,0-4,5.07Z"/></g></g></svg>